HIERARCHY
ROOT newVegas:Hips
{
	OFFSET 0.000000 96.479958 0.000000
	CHANNELS 6 Xposition Yposition Zposition Xrotation Yrotation Zrotation
	JOINT newVegas:Pelvis
	{
		OFFSET 0.000000 0.000000 0.000000
		CHANNELS 3 Xrotation Yrotation Zrotation
		JOINT newVegas:LeftUpLeg
		{
			OFFSET 18.735201 -5.666702 -4.541200
			CHANNELS 3 Xrotation Yrotation Zrotation
			JOINT newVegas:LeftLeg
			{
				OFFSET -0.021200 -31.938179 0.493100
				CHANNELS 3 Xrotation Yrotation Zrotation
				JOINT newVegas:LeftFoot
				{
					OFFSET 0.021200 -31.938179 -4.336299
					CHANNELS 3 Xrotation Yrotation Zrotation
					JOINT newVegas:LeftToeBase
					{
						OFFSET 0.943001 -26.722000 15.023500
						CHANNELS 3 Xrotation Yrotation Zrotation
						End Site
						{
							OFFSET 0.000000 30.670183 0.000000
						}
					}
				}
				JOINT newVegas:Left_PantLeg
				{
					OFFSET 0.663870 -9.044666 -1.108900
					CHANNELS 3 Xrotation Yrotation Zrotation
					End Site
					{
						OFFSET 1.415995 20.635357 0.000000
					}
				}
			}
		}
		JOINT newVegas:RightUpLeg
		{
			OFFSET -18.735201 -5.666702 -4.541200
			CHANNELS 3 Xrotation Yrotation Zrotation
			JOINT newVegas:RightLeg
			{
				OFFSET 0.018946 -31.938133 0.493100
				CHANNELS 3 Xrotation Yrotation Zrotation
				JOINT newVegas:RightFoot
				{
					OFFSET -0.018946 -31.938126 -4.336299
					CHANNELS 3 Xrotation Yrotation Zrotation
					JOINT newVegas:RightToeBase
					{
						OFFSET -0.943001 -26.722004 15.023500
						CHANNELS 3 Xrotation Yrotation Zrotation
						End Site
						{
							OFFSET 0.000000 30.670187 0.000000
						}
					}
				}
				JOINT newVegas:Right_PantLeg
				{
					OFFSET -0.661674 -9.044716 -1.108900
					CHANNELS 3 Xrotation Yrotation Zrotation
					End Site
					{
						OFFSET -1.415958 20.635269 0.000000
					}
				}
			}
		}
	}
	JOINT newVegas:Spine
	{
		OFFSET 0.000000 10.199997 -0.299500
		CHANNELS 3 Xrotation Yrotation Zrotation
		JOINT newVegas:Spine1
		{
			OFFSET 0.000000 11.900002 -1.516600
			CHANNELS 3 Xrotation Yrotation Zrotation
			JOINT newVegas:Spine2
			{
				OFFSET 0.000000 13.600006 -2.842500
				CHANNELS 3 Xrotation Yrotation Zrotation
				JOINT newVegas:Neck
				{
					OFFSET 0.000000 9.624100 -2.890100
					CHANNELS 3 Xrotation Yrotation Zrotation
					JOINT newVegas:Head
					{
						OFFSET 0.000000 14.068802 -1.351900
						CHANNELS 3 Xrotation Yrotation Zrotation
						JOINT newVegas:Hair_Back
						{
							OFFSET 0.000000 3.231903 -17.524799
							CHANNELS 3 Xrotation Yrotation Zrotation
							End Site
							{
								OFFSET 0.000000 19.849884 0.000000
							}
						}
						JOINT newVegas:Hair_Front
						{
							OFFSET 0.000000 31.260406 4.573800
							CHANNELS 3 Xrotation Yrotation Zrotation
							JOINT newVegas:Hair_Front1
							{
								OFFSET 0.000000 2.284103 11.993300
								CHANNELS 3 Xrotation Yrotation Zrotation
								JOINT newVegas:Hair_Front2
								{
									OFFSET 0.000000 2.284103 11.993300
									CHANNELS 3 Xrotation Yrotation Zrotation
									End Site
									{
										OFFSET 0.000000 12.208862 0.000000
									}
								}
							}
						}
						JOINT newVegas:Jowel
						{
							OFFSET 0.000000 -7.458206 6.864100
							CHANNELS 3 Xrotation Yrotation Zrotation
							End Site
							{
								OFFSET 0.000000 19.849884 0.000000
							}
						}
					}
				}
				JOINT newVegas:LeftShoulder
				{
					OFFSET 15.263000 10.923401 -0.547700
					CHANNELS 3 Xrotation Yrotation Zrotation
					JOINT newVegas:LeftArm
					{
						OFFSET 25.438599 -2.830597 -13.032500
						CHANNELS 3 Xrotation Yrotation Zrotation
						JOINT newVegas:LeftForeArm
						{
							OFFSET 29.960503 0.000000 0.000000
							CHANNELS 3 Xrotation Yrotation Zrotation
							JOINT newVegas:LeftHand
							{
								OFFSET 27.849251 0.000000 0.000000
								CHANNELS 3 Xrotation Yrotation Zrotation
								JOINT newVegas:LeftHandThumb1
								{
									OFFSET 4.487587 -3.305161 6.305391
									CHANNELS 3 Xrotation Yrotation Zrotation
									JOINT newVegas:LeftHandThumb2
									{
										OFFSET 5.480453 -3.164139 3.164143
										CHANNELS 3 Xrotation Yrotation Zrotation
										JOINT newVegas:LeftHandThumb3
										{
											OFFSET 5.159721 -2.978973 2.978967
											CHANNELS 3 Xrotation Yrotation Zrotation
											End Site
											{
												OFFSET 2.494507 5.926697 1.738678
											}
										}
									}
								}
								JOINT newVegas:LeftHandIndex1
								{
									OFFSET 18.578728 -0.527832 5.208049
									CHANNELS 3 Xrotation Yrotation Zrotation
									JOINT newVegas:LeftHandIndex2
									{
										OFFSET 3.192009 0.000000 0.000000
										CHANNELS 3 Xrotation Yrotation Zrotation
										JOINT newVegas:LeftHandIndex3
										{
											OFFSET 3.835129 0.000000 0.000000
											CHANNELS 3 Xrotation Yrotation Zrotation
											End Site
											{
												OFFSET -0.034599 3.816971 0.371180
											}
										}
									}
								}
								JOINT newVegas:LeftHandMiddle1
								{
									OFFSET 18.476105 0.000000 0.000000
									CHANNELS 3 Xrotation Yrotation Zrotation
									JOINT newVegas:LeftHandMiddle2
									{
										OFFSET 3.324875 0.000000 0.000000
										CHANNELS 3 Xrotation Yrotation Zrotation
										JOINT newVegas:LeftHandMiddle3
										{
											OFFSET 4.596550 0.000000 0.000000
											CHANNELS 3 Xrotation Yrotation Zrotation
											End Site
											{
												OFFSET 0.057701 4.578827 0.399218
											}
										}
									}
								}
								JOINT newVegas:LeftHandRing1
								{
									OFFSET 17.732719 0.121887 -4.201567
									CHANNELS 3 Xrotation Yrotation Zrotation
									JOINT newVegas:LeftHandRing2
									{
										OFFSET 2.733170 0.000000 0.000000
										CHANNELS 3 Xrotation Yrotation Zrotation
										JOINT newVegas:LeftHandRing3
										{
											OFFSET 3.178268 0.000000 0.000000
											CHANNELS 3 Xrotation Yrotation Zrotation
											End Site
											{
												OFFSET 0.119102 3.170624 0.185394
											}
										}
									}
								}
								JOINT newVegas:LeftHandPinky1
								{
									OFFSET 15.989624 -0.606689 -7.535461
									CHANNELS 3 Xrotation Yrotation Zrotation
									JOINT newVegas:LeftHandPinky2
									{
										OFFSET 2.538986 0.000000 0.000000
										CHANNELS 3 Xrotation Yrotation Zrotation
										JOINT newVegas:LeftHandPinky3
										{
											OFFSET 2.593102 0.000000 0.000000
											CHANNELS 3 Xrotation Yrotation Zrotation
											End Site
											{
												OFFSET -0.150902 2.584198 0.152708
											}
										}
									}
								}
							}
							JOINT newVegas:Left_Sleeve
							{
								OFFSET 0.267448 -0.649796 0.577675
								CHANNELS 3 Xrotation Yrotation Zrotation
								End Site
								{
									OFFSET 0.000000 15.991241 0.000000
								}
							}
							JOINT newVegas:Left_CapeC
							{
								OFFSET 15.715958 -8.608795 -6.935905
								CHANNELS 3 Xrotation Yrotation Zrotation
								JOINT newVegas:Left_CapeC1
								{
									OFFSET 0.000000 -8.688499 0.000000
									CHANNELS 3 Xrotation Yrotation Zrotation
									End Site
									{
										OFFSET 0.000000 8.688499 0.000000
									}
								}
							}
						}
						JOINT newVegas:Left_CapeB
						{
							OFFSET 26.118385 -8.608795 -7.079235
							CHANNELS 3 Xrotation Yrotation Zrotation
							JOINT newVegas:Left_CapeB1
							{
								OFFSET 0.000000 -8.688499 0.000000
								CHANNELS 3 Xrotation Yrotation Zrotation
								End Site
								{
									OFFSET 0.000000 8.688499 0.000000
								}
							}
						}
						JOINT newVegas:Left_CapeA
						{
							OFFSET 5.115639 -8.608795 -10.395809
							CHANNELS 3 Xrotation Yrotation Zrotation
							JOINT newVegas:Left_CapeA1
							{
								OFFSET 0.000000 -8.688499 0.000000
								CHANNELS 3 Xrotation Yrotation Zrotation
								End Site
								{
									OFFSET 0.000000 8.688499 0.000000
								}
							}
						}
					}
				}
				JOINT newVegas:RightShoulder
				{
					OFFSET -15.263000 10.923401 -0.547700
					CHANNELS 3 Xrotation Yrotation Zrotation
					JOINT newVegas:RightArm
					{
						OFFSET -25.438599 -2.830597 -13.032500
						CHANNELS 3 Xrotation Yrotation Zrotation
						JOINT newVegas:RightForeArm
						{
							OFFSET -29.960503 0.000000 0.000000
							CHANNELS 3 Xrotation Yrotation Zrotation
							JOINT newVegas:RightHand
							{
								OFFSET -27.849251 0.000000 0.000000
								CHANNELS 3 Xrotation Yrotation Zrotation
								JOINT newVegas:RightHandThumb1
								{
									OFFSET -4.487587 -3.305161 6.305391
									CHANNELS 3 Xrotation Yrotation Zrotation
									JOINT newVegas:RightHandThumb2
									{
										OFFSET -5.480453 -3.164139 3.164143
										CHANNELS 3 Xrotation Yrotation Zrotation
										JOINT newVegas:RightHandThumb3
										{
											OFFSET -5.159721 -2.978973 2.978967
											CHANNELS 3 Xrotation Yrotation Zrotation
											End Site
											{
												OFFSET -2.494507 5.926697 1.738678
											}
										}
									}
								}
								JOINT newVegas:RightHandIndex1
								{
									OFFSET -18.578728 -0.527832 5.208049
									CHANNELS 3 Xrotation Yrotation Zrotation
									JOINT newVegas:RightHandIndex2
									{
										OFFSET -3.192009 0.000000 0.000000
										CHANNELS 3 Xrotation Yrotation Zrotation
										JOINT newVegas:RightHandIndex3
										{
											OFFSET -3.835129 0.000000 0.000000
											CHANNELS 3 Xrotation Yrotation Zrotation
											End Site
											{
												OFFSET 0.034599 3.816971 0.371180
											}
										}
									}
								}
								JOINT newVegas:RightHandMiddle1
								{
									OFFSET -18.476105 0.000000 0.000000
									CHANNELS 3 Xrotation Yrotation Zrotation
									JOINT newVegas:RightHandMiddle2
									{
										OFFSET -3.324875 0.000000 0.000000
										CHANNELS 3 Xrotation Yrotation Zrotation
										JOINT newVegas:RightHandMiddle3
										{
											OFFSET -4.596550 0.000000 0.000000
											CHANNELS 3 Xrotation Yrotation Zrotation
											End Site
											{
												OFFSET -0.057701 4.578827 0.399218
											}
										}
									}
								}
								JOINT newVegas:RightHandRing1
								{
									OFFSET -17.732719 0.121887 -4.201567
									CHANNELS 3 Xrotation Yrotation Zrotation
									JOINT newVegas:RightHandRing2
									{
										OFFSET -2.733170 0.000000 0.000000
										CHANNELS 3 Xrotation Yrotation Zrotation
										JOINT newVegas:RightHandRing3
										{
											OFFSET -3.178268 0.000000 0.000000
											CHANNELS 3 Xrotation Yrotation Zrotation
											End Site
											{
												OFFSET -0.119102 3.170624 0.185394
											}
										}
									}
								}
								JOINT newVegas:RightHandPinky1
								{
									OFFSET -15.989624 -0.606689 -7.535461
									CHANNELS 3 Xrotation Yrotation Zrotation
									JOINT newVegas:RightHandPinky2
									{
										OFFSET -2.538986 0.000000 0.000000
										CHANNELS 3 Xrotation Yrotation Zrotation
										JOINT newVegas:RightHandPinky3
										{
											OFFSET -2.593102 0.000000 0.000000
											CHANNELS 3 Xrotation Yrotation Zrotation
											End Site
											{
												OFFSET 0.150902 2.584198 0.152708
											}
										}
									}
								}
							}
							JOINT newVegas:Right_CapeC
							{
								OFFSET -15.715958 -8.608795 -6.935905
								CHANNELS 3 Xrotation Yrotation Zrotation
								JOINT newVegas:Right_CapeC1
								{
									OFFSET 0.000000 -8.688499 0.000000
									CHANNELS 3 Xrotation Yrotation Zrotation
									End Site
									{
										OFFSET 0.000000 8.688499 0.000000
									}
								}
							}
							JOINT newVegas:Right_Sleeve
							{
								OFFSET -0.267448 -0.649994 0.577675
								CHANNELS 3 Xrotation Yrotation Zrotation
								End Site
								{
									OFFSET 0.000000 15.991302 0.000000
								}
							}
						}
						JOINT newVegas:Right_CapeA
						{
							OFFSET -5.115540 -8.608795 -10.395824
							CHANNELS 3 Xrotation Yrotation Zrotation
							JOINT newVegas:Right_CapeA1
							{
								OFFSET 0.000000 -8.688499 0.000000
								CHANNELS 3 Xrotation Yrotation Zrotation
								End Site
								{
									OFFSET 0.000000 8.688499 0.000000
								}
							}
						}
						JOINT newVegas:Right_CapeB
						{
							OFFSET -26.118187 -8.608795 -7.079266
							CHANNELS 3 Xrotation Yrotation Zrotation
							JOINT newVegas:Right_CapeB1
							{
								OFFSET 0.000000 -8.688499 0.000000
								CHANNELS 3 Xrotation Yrotation Zrotation
								End Site
								{
									OFFSET 0.000000 8.688499 0.000000
								}
							}
						}
					}
				}
				JOINT newVegas:Left_Collar
				{
					OFFSET 18.625099 8.655502 8.828100
					CHANNELS 3 Xrotation Yrotation Zrotation
					JOINT newVegas:Left_Collar1
					{
						OFFSET 14.783401 10.540405 -1.259500
						CHANNELS 3 Xrotation Yrotation Zrotation
						End Site
						{
							OFFSET 0.000000 18.199875 0.000000
						}
					}
				}
				JOINT newVegas:Collar_Back
				{
					OFFSET 0.000000 15.630707 -20.132601
					CHANNELS 3 Xrotation Yrotation Zrotation
					End Site
					{
						OFFSET 0.000000 22.523010 0.000000
					}
				}
				JOINT newVegas:Left_Peck
				{
					OFFSET 17.239599 -5.132599 25.482599
					CHANNELS 3 Xrotation Yrotation Zrotation
					End Site
					{
						OFFSET 0.000000 22.523010 0.000000
					}
				}
				JOINT newVegas:Right_Peck
				{
					OFFSET -17.239599 -5.132202 25.482599
					CHANNELS 3 Xrotation Yrotation Zrotation
					End Site
					{
						OFFSET 0.000000 22.523010 0.000000
					}
				}
				JOINT newVegas:Right_Collar
				{
					OFFSET -18.625099 8.655792 8.828100
					CHANNELS 3 Xrotation Yrotation Zrotation
					JOINT newVegas:Right_Collar1
					{
						OFFSET -14.783401 10.539993 -1.259500
						CHANNELS 3 Xrotation Yrotation Zrotation
						End Site
						{
							OFFSET 0.000000 18.199631 0.000000
						}
					}
				}
			}
		}
		JOINT newVegas:Belly
		{
			OFFSET 0.000000 -6.540398 9.014299
			CHANNELS 3 Xrotation Yrotation Zrotation
			End Site
			{
				OFFSET 0.000000 11.566666 0.000000
			}
		}
	}
	JOINT newVegas:ElvisFacialAnim_Joint
	{
		OFFSET 1.000000 -95.330101 -8.825800
		CHANNELS 3 Xrotation Yrotation Zrotation
		End Site
		{
			OFFSET 0.000000 35.315800 0.000000
		}
	}
}
MOTION
Frames: 4
Frame Time: 0.016667
-2.681003 80.373810 2.552223 -5.398392 -46.091052 -0.138898 0.000000 -0.000003 -0.000000 -36.910913 3.269429 21.343897 62.508389 -8.152317 4.188292 -22.911134 -6.711847 -18.589818 -0.000000 -0.000002 0.000000 -0.000002 0.000000 -0.000001 -20.977761 -8.980943 -32.624747 63.053820 -6.514524 -7.419387 -31.031984 -9.960295 27.205344 0.000000 -0.000001 0.000000 -0.000000 0.000002 0.000000 9.462111 7.035676 -1.694600 2.187714 0.989900 -0.915632 2.202829 0.982767 -0.894152 2.650040 3.452606 -0.064175 2.650048 3.452582 -0.064170 0.000001 0.000000 0.000000 2.650041 3.452601 -0.064179 2.650114 3.452569 -0.064170 0.000002 0.000001 -0.000001 0.000001 0.000000 0.000001 1.117177 3.546354 -8.633310 -53.487017 4.935504 -51.502990 0.000479 -106.358046 0.000490 1.988606 -7.706158 -15.869265 -6.141213 -11.690801 -6.761676 9.914106 42.595529 3.409867 -0.000000 -0.000001 -0.000001 0.255309 3.378224 -45.814327 5.654095 5.847759 -88.067455 0.000002 -0.000001 -0.000001 -0.461478 3.841587 -39.722666 6.450747 5.820338 -95.892871 0.000002 0.000002 0.000001 0.469725 4.966821 -39.799437 8.181043 5.368607 -113.503011 -0.000000 0.000001 0.000001 -3.762431 9.063717 -45.253818 5.342510 5.828976 -85.005311 0.000001 -0.000003 -0.000001 0.000000 0.000004 0.000002 0.000000 0.000004 0.000002 0.000000 0.000004 0.000002 0.000002 -0.000001 0.000000 0.000002 -0.000002 0.000000 0.000002 -0.000001 0.000000 0.000002 -0.000002 0.000000 3.036128 13.027198 -5.371408 -48.713732 27.172835 83.457084 0.000217 105.988342 -0.000222 -8.345338 17.548086 8.775664 -7.341092 13.749664 7.412322 9.855736 -44.489113 -3.903274 -0.000002 -0.000004 -0.000001 -0.124378 -2.384794 45.108864 4.500586 -4.654544 88.071164 -0.000000 -0.000001 -0.000001 -0.761627 -2.932901 39.031055 5.133878 -4.632747 95.881649 -0.000001 0.000000 0.000000 0.154761 -4.068805 39.122682 6.509724 -4.273588 113.462870 -0.000000 0.000001 0.000000 -4.198878 -8.025541 44.637776 4.252891 -4.639605 85.014818 0.000001 0.000003 -0.000001 -0.000000 0.000002 0.000000 0.000001 0.000000 -0.000002 -0.000000 0.000002 -0.000000 0.000000 0.000000 -0.000000 0.000000 0.000001 -0.000000 0.000000 0.000000 -0.000000 0.000000 0.000001 -0.000001 -0.000000 0.000002 -0.000000 -0.000000 0.000002 -0.000000 -0.000000 0.000002 -0.000000 -0.000000 0.000002 -0.000000 -0.000000 0.000002 -0.000000 -0.000000 0.000002 -0.000000 -0.000000 0.000002 -0.000000 0.000000 -0.000000 -0.000000 0.000000 -0.000003 -0.000000 
-2.624004 80.064629 3.004383 -5.081973 -46.374481 0.098157 0.000000 -0.000003 -0.000000 -37.298454 3.174650 21.116607 63.937811 -8.016297 4.088251 -23.828903 -6.193298 -18.203441 0.000000 -0.000003 0.000000 0.000000 0.000002 -0.000000 -21.391616 -8.742431 -33.241250 63.455470 -5.654513 -7.359929 -31.173403 -10.304350 27.211822 0.000000 0.000000 -0.000000 0.000002 -0.000001 -0.000001 9.687954 7.171070 -2.026281 2.062172 1.010601 -0.893727 2.076817 1.004103 -0.874000 2.665888 3.464114 -0.004815 2.665906 3.464102 -0.004818 0.000000 0.000000 0.000001 2.665892 3.464118 -0.004819 2.665965 3.464101 -0.004815 -0.000001 -0.000002 0.000001 0.000000 0.000000 0.000000 1.112657 3.581135 -8.635984 -53.210660 4.972767 -51.357234 0.000535 -106.367752 0.000539 2.411222 -7.507501 -16.196265 -6.141213 -11.690801 -6.761685 9.914106 42.595519 3.409867 -0.000002 0.000000 0.000001 0.255307 3.378229 -45.814331 5.654093 5.847755 -88.067455 0.000001 -0.000001 -0.000000 -0.461479 3.841590 -39.722673 6.450745 5.820337 -95.892871 0.000002 -0.000001 0.000001 0.469724 4.966822 -39.799444 8.181043 5.368609 -113.503018 -0.000000 0.000003 0.000003 -3.762433 9.063716 -45.253821 5.342512 5.828978 -85.005311 0.000000 0.000000 -0.000002 0.000001 0.000000 -0.000000 0.000001 0.000000 -0.000000 0.000001 0.000001 0.000000 -0.000000 0.000004 -0.000000 -0.000000 0.000003 0.000000 -0.000000 0.000004 -0.000000 -0.000000 0.000003 -0.000000 3.105121 13.142793 -5.328005 -48.727440 27.290291 83.461524 0.000604 105.913729 -0.000599 -8.160912 17.583432 8.793057 -7.341093 13.749662 7.412327 9.855731 -44.489107 -3.903279 0.000000 0.000001 -0.000000 -0.124379 -2.384793 45.108864 4.500586 -4.654545 88.071164 0.000002 -0.000003 0.000002 -0.761628 -2.932901 39.031055 5.133878 -4.632745 95.881649 -0.000000 -0.000001 -0.000001 0.154759 -4.068806 39.122685 6.509724 -4.273591 113.462870 0.000001 0.000001 0.000000 -4.198878 -8.025536 44.637779 4.252896 -4.639604 85.014811 -0.000002 0.000003 -0.000000 -0.000001 0.000003 -0.000002 -0.000000 -0.000000 -0.000002 -0.000001 0.000003 -0.000001 0.000001 0.000000 -0.000001 0.000001 0.000001 -0.000001 0.000001 0.000000 -0.000001 0.000001 0.000001 -0.000001 -0.000000 0.000002 -0.000000 -0.000000 0.000002 -0.000000 -0.000000 0.000002 -0.000000 -0.000000 0.000002 -0.000000 -0.000000 0.000002 -0.000000 -0.000000 0.000002 -0.000000 -0.000000 0.000002 -0.000000 -0.000000 0.000002 -0.000000 0.000000 -0.000003 -0.000000 
-2.552719 79.673805 3.505662 -4.840593 -46.752669 0.300927 -0.000000 -0.000000 0.000000 -37.840225 3.033445 20.950581 65.696461 -7.822496 3.962711 -24.678573 -5.845313 -17.874129 -0.000000 0.000004 -0.000000 -0.000000 -0.000003 -0.000000 -21.915564 -8.458259 -33.987534 64.034280 -4.603433 -7.395368 -31.387089 -10.687374 27.227569 -0.000000 -0.000001 -0.000000 -0.000001 -0.000001 0.000000 9.978216 7.302405 -2.293077 1.916818 1.031763 -0.894297 1.931410 1.024994 -0.876843 2.681632 3.484027 0.051988 2.681640 3.484030 0.051987 0.000001 -0.000002 0.000001 2.681634 3.484010 0.051996 2.681635 3.484038 0.051984 0.000000 -0.000001 -0.000000 0.000001 -0.000002 0.000001 1.110766 3.630401 -8.655380 -52.841769 5.112496 -51.141677 -0.000058 -106.568054 -0.000042 2.622636 -7.353740 -16.403691 -6.141210 -11.690800 -6.761685 9.914101 42.595525 3.409871 -0.000001 0.000001 -0.000003 0.255309 3.378228 -45.814337 5.654096 5.847758 -88.067455 0.000001 -0.000000 0.000000 -0.461477 3.841589 -39.722669 6.450745 5.820334 -95.892871 -0.000001 0.000001 0.000001 0.469726 4.966822 -39.799444 8.181043 5.368605 -113.503011 0.000001 0.000003 0.000002 -3.762428 9.063717 -45.253825 5.342505 5.828978 -85.005304 0.000001 0.000000 -0.000002 -0.000001 -0.000004 0.000001 -0.000001 -0.000004 0.000001 -0.000001 -0.000003 0.000002 0.000000 0.000003 -0.000001 0.000000 0.000002 -0.000000 0.000000 0.000003 -0.000001 0.000000 0.000001 -0.000001 3.169171 13.274909 -5.296752 -48.735763 27.444501 83.446183 0.000783 105.845741 -0.000766 -7.984260 17.693523 8.782210 -7.341092 13.749661 7.412327 9.855733 -44.489103 -3.903286 0.000002 -0.000004 -0.000001 -0.124379 -2.384792 45.108864 4.500588 -4.654541 88.071164 0.000000 0.000001 -0.000002 -0.761628 -2.932904 39.031061 5.133874 -4.632746 95.881649 -0.000001 -0.000003 0.000001 0.154761 -4.068804 39.122688 6.509727 -4.273590 113.462870 0.000002 0.000001 0.000000 -4.198874 -8.025540 44.637776 4.252886 -4.639604 85.014811 0.000000 -0.000000 -0.000001 -0.000000 0.000002 0.000000 -0.000001 0.000002 0.000000 -0.000000 0.000002 -0.000000 -0.000000 0.000001 -0.000000 -0.000000 0.000002 0.000000 -0.000000 0.000001 -0.000000 -0.000000 0.000002 -0.000000 -0.000001 0.000001 -0.000000 -0.000001 0.000001 -0.000000 -0.000001 0.000001 -0.000000 -0.000001 0.000001 -0.000000 -0.000001 0.000001 -0.000000 -0.000001 0.000001 -0.000000 -0.000001 0.000001 -0.000000 -0.000000 0.000000 -0.000000 -0.000000 -0.000000 0.000000 
-2.459523 79.186073 4.073855 -4.725105 -47.203950 0.448480 0.000000 0.000002 -0.000000 -38.589309 2.618810 21.049091 67.841407 -7.887795 3.795945 -25.255074 -5.467933 -18.347864 0.000000 -0.000000 0.000000 0.000002 -0.000001 -0.000000 -22.479778 -8.092647 -34.889279 64.797144 -3.374688 -7.530071 -31.682423 -11.125700 27.293374 -0.000000 0.000000 0.000000 0.000000 0.000000 -0.000003 10.338282 7.428784 -2.489644 1.751585 1.053342 -0.915971 1.766520 1.045414 -0.901336 2.697658 3.510834 0.106780 2.697671 3.510842 0.106779 0.000001 -0.000000 0.000001 2.697662 3.510832 0.106785 2.697659 3.510862 0.106774 0.000002 0.000003 -0.000001 0.000001 -0.000000 -0.000000 1.111787 3.693826 -8.692149 -52.361709 5.340828 -50.878308 0.000524 -106.890493 0.000521 2.654526 -7.266173 -16.480633 -6.141211 -11.690798 -6.761690 9.914102 42.595525 3.409870 0.000004 -0.000004 -0.000003 0.255306 3.378231 -45.814341 5.654093 5.847758 -88.067455 0.000001 -0.000000 0.000001 -0.461479 3.841591 -39.722673 6.450747 5.820334 -95.892871 0.000002 -0.000002 -0.000000 0.469723 4.966825 -39.799444 8.181040 5.368607 -113.503018 -0.000000 -0.000001 0.000002 -3.762429 9.063718 -45.253825 5.342511 5.828974 -85.005311 0.000001 -0.000002 -0.000002 0.000000 0.000000 0.000001 0.000000 0.000000 0.000001 0.000000 0.000001 0.000002 -0.000000 0.000001 -0.000001 -0.000000 0.000000 -0.000000 -0.000000 0.000001 -0.000001 -0.000000 -0.000001 -0.000001 3.224299 13.415400 -5.279437 -48.718162 27.637153 83.417592 0.000004 105.772303 -0.000005 -7.808812 17.876195 8.743098 -7.341094 13.749662 7.412329 9.855732 -44.489107 -3.903273 0.000001 -0.000004 -0.000001 -0.124378 -2.384791 45.108864 4.500587 -4.654543 88.071164 0.000000 -0.000003 0.000002 -0.761627 -2.932901 39.031061 5.133879 -4.632743 95.881649 0.000000 -0.000001 -0.000000 0.154761 -4.068804 39.122688 6.509728 -4.273583 113.462863 0.000001 -0.000003 -0.000001 -4.198872 -8.025535 44.637783 4.252893 -4.639607 85.014818 0.000000 -0.000000 0.000000 0.000001 -0.000002 -0.000000 -0.000000 -0.000002 -0.000001 0.000001 -0.000002 -0.000001 -0.000000 0.000001 0.000001 -0.000000 0.000002 0.000001 -0.000000 0.000001 0.000001 -0.000000 0.000001 0.000000 0.000001 -0.000002 0.000000 0.000001 -0.000002 0.000000 0.000001 -0.000002 0.000000 0.000001 -0.000002 0.000000 0.000001 -0.000002 0.000000 0.000001 -0.000002 0.000000 0.000001 -0.000002 0.000000 0.000000 -0.000000 0.000000 0.000000 0.000002 -0.000000 
